# xmcd
#
# Track frame offsets:
#	150
#	22993
#	50348
#	73786
#	97083
#	119865
#	146019
#	166697
#
# Disc length: 2495 seconds
#
# Revision: 1
# Processed by: cddbd v1.5.2PL0 Copyright (c) Steve Scherf et al.
# Submitted via: audiograbber 1.83.01
#
DISCID=7009bd08
DTITLE=Country Remix - Country Rhythm 2
DYEAR=1900
DGENRE=Country Remix
TTITLE0=Little Big Town - Boondocks (88)
TTITLE1=Dierks Bently - Come A Little Closer (80)
TTITLE2=Rascal Flatts - Me and My Gang (109)
TTITLE3=Billy Currington - Must Be Doing Something Right (84)
TTITLE4=Big and Rich - Save A Horse, Ride A Cowboy (105)
TTITLE5=Dierks Bentley - Settle For A Slowdown (81)
TTITLE6=Rascal Flatts - What Hurts The Most (72)
TTITLE7=Joe Nichols - Tequila Makes Her Clothes Fall Off (94)
EXTD=
EXTT0=
EXTT1=
EXTT2=
EXTT3=
EXTT4=
EXTT5=
EXTT6=
EXTT7=
PLAYORDER=
